<?xml version="1.0" encoding="utf-8"?>
<!-- Generator: Adobe Illustrator 23.0.3, SVG Export Plug-In . SVG Version: 6.00 Build 0)  -->
<svg version="1.1" id="Layer_1" xmlns="http://www.w3.org/2000/svg" xmlns:xlink="http://www.w3.org/1999/xlink" x="0px" y="0px"
	 viewBox="0 0 144 144" style="enable-background:new 0 0 144 144;" xml:space="preserve">
<style type="text/css">
	.st0{fill:none;stroke:#FFFFFF;stroke-linecap:round;stroke-linejoin:round;stroke-miterlimit:10;}
	.st1{opacity:0.3;fill:#528AC8;stroke:#FFFFFF;stroke-miterlimit:10;enable-background:new    ;}
</style>
<g>
	<path class="st0" d="M122.3,46"/>
	<path class="st0" d="M28.7,108.8c-1-1.1-1.6-2.6-1.6-4.2V52.7c0-3.7,3-6.6,6.6-6.6H99"/>
	<path class="st0" d="M33.8,111.2"/>
	<path class="st0" d="M128.9,71.9v32.7c0,1.6-0.6,3.1-1.5,4.2"/>
	<path class="st0" d="M128.9,52.7"/>
	<path class="st0" d="M118.4,49.4"/>
	<path class="st0" d="M125,77.4v20.8c0,3.7-3,6.6-6.6,6.6H37.7c-3.7,0-6.6-3-6.6-6.6V56.1c0-3.7,3-6.6,6.6-6.6h61.8"/>
	<path class="st0" d="M125,56.1"/>
	<path class="st0" d="M136.5,108.8H19.6c-1.7,0-3,1.3-3,3v0.2c0,1.7,1.3,3,3,3h116.9c1.7,0,3-1.3,3-3v-0.2
		C139.5,110.2,138.2,108.8,136.5,108.8z"/>
	<path class="st1" d="M97.1,111.9H59c-0.8,0-1.5-0.7-1.5-1.5v-0.1c0-0.8,0.7-1.5,1.5-1.5h38.2c0.8,0,1.5,0.7,1.5,1.5v0.1
		C98.6,111.3,97.9,111.9,97.1,111.9z"/>
	<path class="st0" d="M97.1,111.9H59c-0.8,0-1.5-0.7-1.5-1.5v-0.1c0-0.8,0.7-1.5,1.5-1.5h38.2c0.8,0,1.5,0.7,1.5,1.5v0.1
		C98.6,111.3,97.9,111.9,97.1,111.9z"/>
	<line class="st0" x1="41.4" y1="59.6" x2="76.4" y2="59.6"/>
	<line class="st0" x1="41.4" y1="69.6" x2="81.4" y2="69.6"/>
	<g>
		<line class="st0" x1="7.5" y1="43.7" x2="7.5" y2="53.4"/>
		<line class="st0" x1="12.4" y1="48.5" x2="2.6" y2="48.5"/>
	</g>
	<g>
		<line class="st0" x1="15.5" y1="65.3" x2="15.5" y2="71.1"/>
		<line class="st0" x1="18.4" y1="68.2" x2="12.6" y2="68.2"/>
	</g>
	<g>
		<path class="st0" d="M137.8,54.3l3.2-0.9l-2.1-7.6l-3.7,1c-1-1.9-2.2-3.4-3.6-4.6l1.9-3.5l-6.9-4.1l-1.9,3.3
			c-2.1-0.7-4.5-1-6.6-0.9l-0.9-3.3l-7.1,1.9l0.9,3.3c-2.9,1.3-4.1,2.5-5.6,4.2l-3.5-1.9l-4,6.9l3.4,2.3c-0.6,1.7-0.9,3.6-0.8,5.8
			l-4,1.1l2.1,7.6l3.5-1c1.1,2.4,2.6,4.3,4.5,6.1l-2,3.2l6.9,3.9l2.2-3.5c2.1,0.7,3.8,1.1,7,0.7l1.1,3.9l7.1-1.9l-1.1-3.9
			c1.9-1,3.8-2.4,5.3-4.1l3.4,1.9l4-6.9l-3.3-1.6C137.7,59.4,138.1,57,137.8,54.3z M121.9,67.3c-6.3,1.7-12.8-2-14.5-8.3
			s2-12.8,8.3-14.5c6.3-1.7,12.8,2,14.5,8.3C131.9,59.1,128.2,65.6,121.9,67.3z"/>
		<path class="st1" d="M137.8,54.3l3.2-0.9l-2.1-7.6l-3.7,1c-1-1.9-2.2-3.4-3.6-4.6l1.9-3.5l-6.9-4.1l-1.9,3.3
			c-2.1-0.7-4.5-1-6.6-0.9l-0.9-3.3l-7.1,1.9l0.9,3.3c-2.9,1.3-4.1,2.5-5.6,4.2l-3.5-1.9l-4,6.9l3.4,2.3c-0.6,1.7-0.9,3.6-0.8,5.8
			l-4,1.1l2.1,7.6l3.5-1c1.1,2.4,2.6,4.3,4.5,6.1l-2,3.2l6.9,3.9l2.2-3.5c2.1,0.7,3.8,1.1,7,0.7l1.1,3.9l7.1-1.9l-1.1-3.9
			c1.9-1,3.8-2.4,5.3-4.1l3.4,1.9l4-6.9l-3.3-1.6C137.7,59.4,138.1,57,137.8,54.3z M121.9,67.3c-6.3,1.7-12.8-2-14.5-8.3
			s2-12.8,8.3-14.5c6.3-1.7,12.8,2,14.5,8.3C131.9,59.1,128.2,65.6,121.9,67.3z"/>
	</g>
	<line class="st0" x1="41.4" y1="78.6" x2="95.4" y2="78.6"/>
	<path class="st1" d="M113,96.9H43.1c-1.3,0-2.4-1.1-2.4-2.4v-5.2c0-1.3,1.1-2.4,2.4-2.4H113c1.3,0,2.4,1.1,2.4,2.4v5.2
		C115.4,95.8,114.3,96.9,113,96.9z"/>
</g>
</svg>
