<?xml version="1.0" encoding="utf-8"?>
<!-- Generator: Adobe Illustrator 23.0.3, SVG Export Plug-In . SVG Version: 6.00 Build 0)  -->
<svg version="1.1" id="Layer_1" xmlns="http://www.w3.org/2000/svg" xmlns:xlink="http://www.w3.org/1999/xlink" x="0px" y="0px"
	 viewBox="0 0 144 144" style="enable-background:new 0 0 144 144;" xml:space="preserve">
<style type="text/css">
	.st0{opacity:0.3;fill:#528AC8;stroke:#FFFFFF;stroke-miterlimit:10;enable-background:new    ;}
	.st1{fill:none;stroke:#FFFFFF;stroke-linecap:round;stroke-linejoin:round;stroke-miterlimit:10;}
</style>
<g>
	<rect x="47" y="104.9" class="st0" width="21" height="5"/>
	<path class="st1" d="M91.7,105h-76c-6.6,0-12-5.4-12-12V34.1c0-6.6,5.4-12,12-12h83.8c6.6,0,12,5.4,12,12v22.5"/>
	<path class="st1" d="M91.7,87.7h-76c-3.6,0-6.5-2.9-6.5-6.5V34.5c0-3.6,2.9-6.5,6.5-6.5h83.6c3.6,0,6.5,2.9,6.5,6.5v21.7"/>
	<path class="st0" d="M9.3,36.5v-2.1c0-3.6,2.9-6.5,6.5-6.5h83.6c3.6,0,6.5,2.9,6.5,6.5v2.1C105.8,36.5,9.3,36.5,9.3,36.5z"/>
	<path class="st1" d="M9.3,36.5v-2.1c0-3.6,2.9-6.5,6.5-6.5h83.6c3.6,0,6.5,2.9,6.5,6.5v2.1C105.8,36.5,9.3,36.5,9.3,36.5z"/>
	<circle class="st0" cx="57.6" cy="96.6" r="3.6"/>
	<circle class="st1" cx="57.6" cy="96.6" r="3.6"/>
	<path class="st1" d="M68.1,105.2c0,0-1.9,12.3,7.5,12.3c-11.4,0-18.7,0-18.7,0H58c0,0-7,0-18.5,0c9.4,0,7.3-12.2,7.3-12.2"/>
	<rect x="16.5" y="42.9" class="st1" width="36" height="13.4"/>
	<g>
		<line class="st1" x1="58.4" y1="44.6" x2="88.4" y2="44.6"/>
		<line class="st1" x1="58.4" y1="50.6" x2="93.4" y2="50.6"/>
		<line class="st1" x1="58.4" y1="54.6" x2="88.4" y2="54.6"/>
	</g>
	<rect x="16.5" y="63.8" class="st0" width="18" height="18"/>
	<rect x="16.5" y="63.8" class="st1" width="18" height="18"/>
	<rect x="41" y="63.8" class="st1" width="18" height="18"/>
	<rect x="65.5" y="63.8" class="st1" width="18" height="18"/>
	<path class="st1" d="M134.7,124.9H96.6c-2.7,0-4.8-2.2-4.8-4.8V61.5c0-2.7,2.2-4.8,4.8-4.8h38.1c2.7,0,4.8,2.2,4.8,4.8v58.6
		C139.5,122.7,137.4,124.9,134.7,124.9z"/>
	<path class="st1" d="M133.1,113.9H98.2c-1.7,0-3.1-1.4-3.1-3.1V63.7c0-1.7,1.4-3.1,3.1-3.1h34.9c1.7,0,3.1,1.4,3.1,3.1v47.1
		C136.2,112.5,134.8,113.9,133.1,113.9z"/>
	<circle class="st0" cx="117.5" cy="119.2" r="2.2"/>
	<circle class="st1" cx="117.5" cy="119.2" r="2.2"/>
	<rect x="101" y="65.6" class="st0" width="30.6" height="25.6"/>
	<rect x="100.3" y="65.6" class="st1" width="31.2" height="25.6"/>
	<line class="st1" x1="101.4" y1="98.6" x2="125.4" y2="98.6"/>
	<line class="st1" x1="101.4" y1="102.6" x2="121.4" y2="102.6"/>
	<g>
		<line class="st1" x1="125.5" y1="40.5" x2="125.5" y2="46.7"/>
		<line class="st1" x1="128.7" y1="43.6" x2="122.4" y2="43.6"/>
	</g>
	<g>
		<line class="st1" x1="135.7" y1="18.4" x2="135.7" y2="28.8"/>
		<line class="st1" x1="140.9" y1="23.6" x2="130.5" y2="23.6"/>
	</g>
</g>
</svg>
