<svg id="Layer_1" data-name="Layer 1" xmlns="http://www.w3.org/2000/svg" viewBox="0 0 192.56 75.06"><defs><style>.cls-1{fill:#272643;}</style></defs><title>Artboard 1</title><path class="cls-1" d="M26.26,22V37.68a1.23,1.23,0,0,1-.38.93A1.26,1.26,0,0,1,25,39H21.63a1.24,1.24,0,0,1-.89-.38,1.27,1.27,0,0,1-.38-.93V8.87a.6.6,0,0,1,.53-.65,1,1,0,0,1,.91.23L40.29,25.93c.28.25.51.34.69.25s.28-.3.28-.67V9.5a1.3,1.3,0,0,1,1.3-1.3h3.29a1.3,1.3,0,0,1,1.31,1.3V38.27a.6.6,0,0,1-.53.66,1.12,1.12,0,0,1-1-.23L27.23,21.51q-.42-.35-.69-.21C26.35,21.38,26.26,21.61,26.26,22Z"/><path class="cls-1" d="M51.37,37.85,66,8.66a.85.85,0,0,1,.84-.5.86.86,0,0,1,.84.5L82.29,37.85a.78.78,0,0,1,.06.8.77.77,0,0,1-.74.34H77.78a2,2,0,0,1-1.1-.34,1.78,1.78,0,0,1-.75-.84l-1.27-2.53a2.28,2.28,0,0,0-.78-.8,2,2,0,0,0-1.07-.33h-12a2.1,2.1,0,0,0-1.1.33,1.87,1.87,0,0,0-.76.85l-1.22,2.48a2.09,2.09,0,0,1-.78.84,1.93,1.93,0,0,1-1.07.34H52.08a.75.75,0,0,1-.73-.34A.84.84,0,0,1,51.37,37.85ZM63.71,29h6.23a.75.75,0,0,0,.74-.36.88.88,0,0,0,0-.82l-3.28-6.95c-.15-.34-.33-.51-.55-.51s-.41.17-.55.51l-3.33,7a.89.89,0,0,0,0,.84A.81.81,0,0,0,63.71,29Z"/><path class="cls-1" d="M101.41,13.38H95.22a1.28,1.28,0,0,0-.93.38,1.26,1.26,0,0,0-.38.92v23a1.23,1.23,0,0,1-.38.93,1.26,1.26,0,0,1-.92.38H89.32a1.26,1.26,0,0,1-.92-.38,1.23,1.23,0,0,1-.38-.93v-23a1.26,1.26,0,0,0-.38-.92,1.3,1.3,0,0,0-.93-.38H80.48a1.3,1.3,0,0,1-1.31-1.31V9.46a1.3,1.3,0,0,1,.38-.93,1.26,1.26,0,0,1,.93-.37h20.93a1.26,1.26,0,0,1,.93.37,1.3,1.3,0,0,1,.38.93v2.61a1.3,1.3,0,0,1-1.31,1.31Z"/><path class="cls-1" d="M112.2,39h-3.33a1.21,1.21,0,0,1-.91-.38,1.29,1.29,0,0,1-.36-.93V9.5a1.28,1.28,0,0,1,.36-.92,1.17,1.17,0,0,1,.91-.38h3.33a1.22,1.22,0,0,1,.92.38,1.26,1.26,0,0,1,.38.92V37.68A1.3,1.3,0,0,1,112.2,39Z"/><path class="cls-1" d="M147.28,9.38,133.81,38.44a.82.82,0,0,1-.81.47.8.8,0,0,1-.8-.47L118.77,9.38a.91.91,0,0,1,0-.85.78.78,0,0,1,.71-.33h3.92a2.15,2.15,0,0,1,1.1.33,1.84,1.84,0,0,1,.75.85l7.21,15.5c.14.31.32.46.54.46s.41-.15.55-.46l7.21-15.5a1.84,1.84,0,0,1,.75-.85,2.12,2.12,0,0,1,1.1-.33h3.92a.82.82,0,0,1,.75.33A.85.85,0,0,1,147.28,9.38Z"/><path class="cls-1" d="M157.35,14.68v5.1a1.3,1.3,0,0,0,1.31,1.31H171a1.28,1.28,0,0,1,1.3,1.3v2.74a1.26,1.26,0,0,1-.37.93,1.3,1.3,0,0,1-.93.38h-12.3a1.23,1.23,0,0,0-.93.38,1.26,1.26,0,0,0-.38.92v4.64a1.26,1.26,0,0,0,.38.92,1.23,1.23,0,0,0,.93.38h14.19A1.3,1.3,0,0,1,174.16,35v2.69A1.3,1.3,0,0,1,172.85,39H152.76a1.3,1.3,0,0,1-.93-.38,1.27,1.27,0,0,1-.38-.93V9.46a1.28,1.28,0,0,1,1.31-1.3h20.09a1.26,1.26,0,0,1,.93.37,1.3,1.3,0,0,1,.38.93v2.61a1.3,1.3,0,0,1-1.31,1.31H158.66a1.3,1.3,0,0,0-1.31,1.3Z"/><path class="cls-1" d="M23.59,51.6a7.24,7.24,0,0,1,5.34,1.92,7.15,7.15,0,0,1,0,10.12,7.27,7.27,0,0,1-5.34,1.91H21V51.6Zm-1.8.81V64.75h1.79a6.55,6.55,0,0,0,4.75-1.68,6.36,6.36,0,0,0,0-9,6.58,6.58,0,0,0-4.75-1.67Z"/><path class="cls-1" d="M42.15,51.6v.78H36v5.8h6.19V59H36v5.79h6.19v.79h-7V51.6Z"/><path class="cls-1" d="M50.57,57.82a5.91,5.91,0,0,1-2.36-1.35,2.89,2.89,0,0,1-.86-2.1,3,3,0,0,1,3-2.94,2.89,2.89,0,0,1,2.1.87,2.6,2.6,0,0,1,.66,1l-.71.28a2.27,2.27,0,0,0-.52-.78,2.17,2.17,0,0,0-3.06,0,2.06,2.06,0,0,0-.64,1.54,2.12,2.12,0,0,0,.63,1.54A5.74,5.74,0,0,0,50.41,57a7.13,7.13,0,0,1,2.83,1.69,4.13,4.13,0,1,1-5.85,5.84,3.9,3.9,0,0,1-1.16-2.25L47,62a3.15,3.15,0,0,0,1,2,3.37,3.37,0,0,0,5.75-2.38,3.2,3.2,0,0,0-1-2.37A6.45,6.45,0,0,0,50.57,57.82Z"/><path class="cls-1" d="M59.4,51.6V65.55h-.79V51.6Z"/><path class="cls-1" d="M75.66,63.82a6.6,6.6,0,0,1-4.75,1.9,7.15,7.15,0,1,1,4.81-12.43l-.6.54a6.36,6.36,0,0,0-8.69.26,6.34,6.34,0,0,0,4.48,10.83,6.15,6.15,0,0,0,4-1.38V59.29h.78Z"/><path class="cls-1" d="M81,51.6l9.28,13v-13H91V65.55H89.81L80.74,52.86V65.55H80V51.6Z"/><path class="cls-1" d="M106.85,57.82a5.8,5.8,0,0,1-2.35-1.35,2.86,2.86,0,0,1-.87-2.1,3,3,0,0,1,3-2.94,2.87,2.87,0,0,1,2.09.87,2.4,2.4,0,0,1,.66,1l-.71.28a2.39,2.39,0,0,0-.51-.78,2.08,2.08,0,0,0-1.53-.63,2.12,2.12,0,0,0-1.54.63,2.1,2.1,0,0,0-.64,1.54,2.13,2.13,0,0,0,.64,1.54A5.6,5.6,0,0,0,106.7,57a7.1,7.1,0,0,1,2.82,1.69,4.15,4.15,0,0,1,0,5.85,3.93,3.93,0,0,1-2.91,1.21,4,4,0,0,1-2.93-1.22,3.9,3.9,0,0,1-1.16-2.25l.74-.27a3.17,3.17,0,0,0,1,2A3.36,3.36,0,0,0,110,61.58a3.23,3.23,0,0,0-1-2.37A6.5,6.5,0,0,0,106.85,57.82Z"/><path class="cls-1" d="M118.32,52.38V65.55h-.78V52.38H114V51.6h7.85v.78Z"/><path class="cls-1" d="M134,51.6h.79v10a4.66,4.66,0,0,1-1.33,2.71,4.56,4.56,0,0,1-7.78-3.22V51.6h.79v9.52a3.61,3.61,0,0,0,1.1,2.66A3.77,3.77,0,0,0,134,61.12Z"/><path class="cls-1" d="M142,51.6a7.24,7.24,0,0,1,5.34,1.92,7.15,7.15,0,0,1,0,10.12A7.27,7.27,0,0,1,142,65.55h-2.58V51.6Zm-1.79.81V64.75H142a6.55,6.55,0,0,0,4.75-1.68,6.36,6.36,0,0,0,0-9A6.58,6.58,0,0,0,142,52.41Z"/><path class="cls-1" d="M154.51,51.6V65.55h-.79V51.6Z"/><path class="cls-1" d="M171,53.5a7.16,7.16,0,0,1,0,10.13,7.17,7.17,0,0,1-12.23-5.08,7.16,7.16,0,0,1,12.23-5Zm-5.07-1.3a6.37,6.37,0,1,0,4.5,1.86A6.12,6.12,0,0,0,165.91,52.2Z"/></svg>